# xmcd CD database file
#
# Track frame offsets:
#	150
#	11064
#	21176
#	34024
#	46523
#	56681
#	68197
#	76614
#	88472
#	101062
#	118110
#	136777
#	149838
#	168092
#	181969
#	203449
#	213977
#	226830
#	241691
#	257386
#	274753
#	302573
#
# Disc length: 4042 seconds
#
# Revision: 0
# Processed by: cddbd v1.5.1PL2 Copyright (c) Steve Scherf et al.
# Submitted via: CDex 1.70beta1
#
DISCID=1f0fc816
DTITLE=Johnny Cash - The Legend of Johnny Cash
DYEAR=1900
DGENRE=Country
TTITLE0=Cry! Cry! Cry!
TTITLE1=Hey Porter
TTITLE2=Folsom Prison Blues
TTITLE3=I Walk The Line
TTITLE4=Get Rhythm
TTITLE5=Big River
TTITLE6=Guess Things Happen That Way
TTITLE7=Ring Of Fire
TTITLE8=Jackson
TTITLE9=A Boy Named Sue
TTITLE10=Sunday Morning Coming Down
TTITLE11=Man In Black
TTITLE12=One Piece At A Time
TTITLE13=Highwayman
TTITLE14=The Wanderer - U2
TTITLE15=Delia's Gone
TTITLE16=Rusty Cage
TTITLE17=I've Been Everywhere
TTITLE18=Give My Love To Rose
TTITLE19=The Man Comes Around (Early Take)
TTITLE20=Hurt
TTITLE21=Extended
EXTD=
EXTT0=
EXTT1=
EXTT2=
EXTT3=
EXTT4=
EXTT5=
EXTT6=
EXTT7=
EXTT8=
EXTT9=
EXTT10=
EXTT11=
EXTT12=
EXTT13=
EXTT14=
EXTT15=
EXTT16=
EXTT17=
EXTT18=
EXTT19=
EXTT20=
EXTT21=
PLAYORDER=
